# xmcd
#
# Track frame offsets:
# 150
# 12027
# 27297
# 45414
# 74456
# 107673
# 130993
# 146738
# 169327
# 195924
# 226061
# 252276
# 274635
# 293927
#
# Disc length: 4304 seconds
#
# Revision: 1
# Processed by: cddbd v1.4PL0 Copyright (c) Steve Scherf et al.
# Submitted via: inCDius 2.0b9
#
DISCID=c010ce0e
DTITLE=Carvin Jones Band - 100% Live - Hot As Hell Tour 2001
DYEAR=1900
DGENRE=
TTITLE0=Intro
TTITLE1=Drivin' South
TTITLE2=Beck's Boogie
TTITLE3=Goin' Down
TTITLE4=Voodoo Chile
TTITLE5=Reconsider Baby
TTITLE6=Born Under a Bad Sign
TTITLE7=Purple Haze
TTITLE8=Texas Flood
TTITLE9=Sunshine of Your Love
TTITLE10=The Moon Is Full
TTITLE11=Europa
TTITLE12=Hail to the Queen
TTITLE13=Commit a Crime
EXTD=(p)(c) Carvin Jones 2001
EXTT0=
EXTT1=
EXTT2=
EXTT3=
EXTT4=
EXTT5=
EXTT6=
EXTT7=
EXTT8=
EXTT9=
EXTT10=
EXTT11=
EXTT12=
EXTT13=
PLAYORDER=
